  <svg class="pm pm-gif-fill" width="27" height="15" viewBox="0 0 27 15" fill="#69c8ecff"
    xmlns="http://www.w3.org/2000/svg">
    <path fill-rule="evenodd" clip-rule="evenodd"
      d="M2 0C0.895386 0 0 0.895386 0 2V13C0 14.1046 0.895386 15 2 15H25C26.1046 15 27 14.1046 27 13V2C27 0.895386 26.1046 0 25 0H2ZM11.3792 5.62683H10.019V4.43542C10.019 4.33655 10.0093 4.25806 9.98962 4.2002C9.97498 4.15723 9.95496 4.12561 9.92944 4.10522C9.86963 4.04785 9.75012 4.01917 9.57068 4.01917H8.80847C8.62915 4.01917 8.50952 4.04785 8.44971 4.10522C8.39001 4.15308 8.36011 4.26318 8.36011 4.43542V10.5646C8.36011 10.7368 8.39001 10.8517 8.44971 10.9091C8.47327 10.9279 8.5061 10.943 8.54822 10.9545C8.57178 10.9608 8.59814 10.9661 8.62744 10.9701C8.67896 10.9773 8.73926 10.9808 8.80847 10.9808H9.57068C9.75012 10.9808 9.86963 10.9569 9.92944 10.9091C9.98926 10.8517 10.019 10.7368 10.019 10.5646V8.36841H9.27185V7.36365H11.3792V10.7225C11.3792 11.5742 10.9159 12 9.98926 12H8.39001C7.46338 12 7 11.5742 7 10.7225V4.26318C7 3.42102 7.46338 3 8.39001 3H9.98926C10.9159 3 11.3792 3.42102 11.3792 4.26318V5.62683ZM12.9012 3H14.2463V11.9856H12.9012V3ZM17.2798 4.04785H20V3H15.9197V11.9856H17.2798V8.02393H19.432V7.00476H17.2798V4.04785Z"
      fill="#69c8ecff" />
  </svg>
