<svg width="50" height="50" viewBox="0 0 50 50" fill="#69c8ecff" xmlns="http://www.w3.org/2000/svg">
<path fill-rule="evenodd" clip-rule="evenodd" d="M25 50C38.8071 50 50 38.8071 50 25C50 11.1929 38.8071 0 25 0C11.1929 0 0 11.1929 0 25C0 38.8071 11.1929 50 25 50ZM40.3623 25.8402C40.2693 25.9808 40.1372 26.0913 39.9825 26.158L14.4436 37.1731C14.2982 37.2358 14.1385 37.2574 13.9822 37.2354C13.8259 37.2133 13.679 37.1484 13.5577 37.0481C13.4364 36.9476 13.3453 36.8156 13.2946 36.6663C13.2439 36.517 13.2354 36.3563 13.2701 36.2019L13.455 35.3877L13.4551 35.3828L15.6948 25.4502L13.5216 15.5323L13.5228 15.5287L13.3434 14.7157C13.3092 14.5614 13.3184 14.4003 13.3699 14.2502C13.4213 14.1002 13.5132 13.9672 13.6353 13.8656C13.7574 13.764 13.9049 13.698 14.0616 13.6748C14.2184 13.6516 14.3783 13.6721 14.5234 13.7341L15.2898 14.0619L15.291 14.0631L39.9878 24.5793C40.1421 24.645 40.2734 24.7546 40.3655 24.8947C40.4575 25.0345 40.5063 25.1989 40.5057 25.3669C40.5052 25.535 40.4553 25.6996 40.3623 25.8402ZM17.2598 26.3035L35.4611 26.2424L35.4623 26.2437L37.4664 25.3771L35.4668 24.5253L17.2655 24.5863L17.4126 25.2574C17.4397 25.3805 17.4393 25.5082 17.4114 25.6315L17.2598 26.3035Z" fill="#69c8ecff"/>
</svg>
